GIL08_free1_RRA_states
nRows=6
nColumns=47

# SIMM Motion File Header:
name GIL08_free1_RRA_states
datacolumns 47
datarows 6
otherdata 1
range 0.90050000000000052000 0.90300000000000058000
endheader
time	pelvis_tx	pelvis_ty	pelvis_tz	pelvis_tilt	pelvis_list	pelvis_rotation	hip_flexion_r	hip_adduction_r	hip_rotation_r	knee_angle_r	ankle_angle_r	subtalar_angle_r	mtp_angle_r	hip_flexion_l	hip_adduction_l	hip_rotation_l	knee_angle_l	ankle_angle_l	subtalar_angle_l	mtp_angle_l	lumbar_extension	lumbar_bending	lumbar_rotation	pelvis_tx_u	pelvis_ty_u	pelvis_tz_u	pelvis_tilt_u	pelvis_list_u	pelvis_rotation_u	hip_flexion_r_u	hip_adduction_r_u	hip_rotation_r_u	knee_angle_r_u	ankle_angle_r_u	subtalar_angle_r_u	mtp_angle_r_u	hip_flexion_l_u	hip_adduction_l_u	hip_rotation_l_u	knee_angle_l_u	ankle_angle_l_u	subtalar_angle_l_u	mtp_angle_l_u	lumbar_extension_u	lumbar_bending_u	lumbar_rotation_u
      0.90050000000000052000	      2.19943183638365310000	      0.97218163653508349000	     -0.22770984716075335000	      4.93470636565079170000	     -0.30542802852228201000	      8.45735564393784860000	     -1.22063017899871420000	      1.96542890003162500000	      6.28161335195023530000	    -13.48923090730117700000	      7.99674901831197000000	     -0.00000000000003247919	     -0.00000000000009832047	      9.01702296635963490000	     -3.05374661273293930000	     -0.36613568713712580000	    -47.62374392425096700000	      6.89444962466599610000	      0.00000000000017743662	     -0.00000000000053941255	     -8.07840310092031010000	      4.12492926889243170000	      4.59897122848770930000	      0.99568977142369797000	      0.02022465656337886200	      0.09483334119337819000	      1.68119525538119550000	     13.83723306680244200000	    -36.03706427074515500000	    -87.38798524981531600000	     -9.77891109850666140000	    -17.02587911379701800000	     34.63021034980441500000	     38.63680378215793400000	      0.00000000000008591179	     -0.00000000000037337171	     89.21900780779046200000	     32.58272431985948700000	      1.25233491688431390000	    112.44385174397641000000	    100.60696784136275000000	      0.00000000000016310879	     -0.00000000000074081342	    -12.62479023413934900000	    -35.28972442917439900000	     66.94098681972754200000
      0.90100000000000058000	      2.19992962468958500000	      0.97219152986457502000	     -0.22766244899811594000	      4.93556776657643410000	     -0.29853930327457912000	      8.43932927505193040000	     -1.26430984298024680000	      1.96056335448943790000	      6.27309877548657280000	    -13.47196036012722200000	      8.01608299576275660000	     -0.00000000000003243840	     -0.00000000000009849653	      9.06157529779111570000	     -3.03747799679184640000	     -0.36542450682670868000	    -47.56740339397841700000	      6.94468134442279080000	      0.00000000000017751831	     -0.00000000000053978287	     -8.08473699947603740000	      4.10731841369049810000	      4.63238679995212090000	      0.99546374037930740000	      0.01934887369425288700	      0.09475888007951344100	      1.76449406545208640000	     13.71785397759279600000	    -36.06811165086224200000	    -87.33115235206646800000	     -9.68332531859254250000	    -17.03108452045627200000	     34.45249555396478800000	     38.69937190528496300000	      0.00000000000008022107	     -0.00000000000033801979	     88.99017733978006100000	     32.49181366331747300000	      1.59217327011972840000	    112.91820544571826000000	    100.31909810064403000000	      0.00000000000016426505	     -0.00000000000074120434	    -12.71095086565806500000	    -35.15380813231697500000	     66.72093162069630500000
      0.90150000000000052000	      2.20042730041908550000	      0.97220098562442525000	     -0.22761508871530789000	      4.93647094418867290000	     -0.29170998236500956000	      8.42128782953797560000	     -1.30796181616237940000	      1.95574551044581920000	      6.26458360111787730000	    -13.45477788989997400000	      8.03544861905907660000	     -0.00000000000003239794	     -0.00000000000009865679	      9.10601300197852300000	     -3.02125472357580800000	     -0.36454375079357154000	    -47.51082577472960400000	      6.99476789600982940000	      0.00000000000017760020	     -0.00000000000054015311	     -8.09111419646395010000	      4.08977534344137170000	      4.66569180057617940000	      0.99523947996292761000	      0.01847438581617959600	      0.09468181135480366300	      1.84829961654511530000	     13.59962810215227200000	    -36.09737556546983200000	    -87.27722838771028100000	     -9.58812523767735140000	    -17.02828767692477600000	     34.27791206347943400000	     38.76331343035875700000	      0.00000000000007622062	     -0.00000000000032060043	     88.76049679722791600000	     32.40135604940232400000	      1.93058951858728480000	    113.39222304868984000000	    100.02626816760498000000	      0.00000000000016323582	     -0.00000000000073973217	    -12.79797946442917800000	    -35.01859590952363300000	     66.49871957978898300000
      0.90200000000000058000	      2.20092486447038250000	      0.97221000446669070000	     -0.22756776762657463000	      4.93741614743672930000	     -0.28493947779960294000	      8.40323219526046650000	     -1.35158755531447030000	      1.95097515648080180000	      6.25607181070503950000	    -13.43768192542327500000	      8.05484653436344540000	     -0.00000000000003235751	     -0.00000000000009881944	      9.15033565512803730000	     -3.00507656433674080000	     -0.36349417957030206000	    -47.45401122140060600000	      7.04470677270580300000	      0.00000000000017768191	     -0.00000000000054052349	     -8.09753511914713540000	      4.07229969556367700000	      4.69888516719099410000	      0.99501702484095822000	      0.01760119687030484900	      0.09460210384020809000	      1.93259255612980580000	     13.48258658067709300000	    -36.12486478848872200000	    -87.22620820494923100000	     -9.49336185124449910000	    -17.01755342847836900000	     34.10646466547680000000	     38.82860632436371900000	      0.00000000000009385586	     -0.00000000000033189799	     88.52997974925409600000	     32.31135694372419200000	      2.26743177983281720000	    113.86593724520537000000	     99.72839928997093800000	      0.00000000000016394005	     -0.00000000000074263002	    -12.88584922261940400000	    -34.88411711818380200000	     66.27439376194286100000
      0.90250000000000052000	      2.20142231775060980000	      0.97221858703802555000	     -0.22752048705662070000	      4.93840361457068160000	     -0.27822719333891349000	      8.38516325907736440000	     -1.39518850697039460000	      1.94625206736883020000	      6.24756735930510130000	    -13.42067090228250800000	      8.07427744437031340000	     -0.00000000000003230949	     -0.00000000000009898149	      9.19454284480493560000	     -2.98894328915479470000	     -0.36227660577816945000	    -47.39695988304649200000	      7.09449544398485890000	      0.00000000000017776373	     -0.00000000000054089486	     -8.10400018114048670000	      4.05489109933062420000	      4.73196584887897130000	      0.99479641012312336000	      0.01672930940960118100	      0.09451972560708828100	      2.01735235809335520000	     13.36675986467293200000	    -36.15058808887002300000	    -87.17808369973161600000	     -9.39908591378497250000	    -16.99894938294544700000	     33.93815519369756800000	     38.89521349596355300000	      0.00000000000008916435	     -0.00000000000029887190	     88.29864141539526700000	     32.22182277995598600000	      2.60255291443545780000	    114.33937751743531000000	     99.42542288385152500000	      0.00000000000016303426	     -0.00000000000074196443	    -12.97453160367396300000	    -34.75040044175479200000	     66.04799554584292300000
      0.90300000000000058000	      2.20191966119314310000	      0.97222673399346093000	     -0.22747324835118005000	      4.93943357428759540000	     -0.27157251051079567000	      8.36708189985242080000	     -1.43876612033961230000	      1.94157598105121280000	      6.23907416207009740000	    -13.40374324683366100000	      8.09374196294505840000	     -0.00000000000003226035	     -0.00000000000009913224	      9.23863416202151560000	     -2.97285466318129730000	     -0.36089193828769905000	    -47.33967188444137300000	      7.14413133284031600000	      0.00000000000017784535	     -0.00000000000054126634	     -8.11050978151999760000	      4.03754916345550720000	      4.76493282437986390000	      0.99457767151030552000	      0.01585872724486227600	      0.09443464619611952000	      2.10255904163628760000	     13.25217780787279400000	    -36.17455526071349700000	    -87.13284724288405400000	     -9.30534713924850540000	    -16.97254083584190500000	     33.77298633928779700000	     38.96311153352995400000	      0.00000000000010338118	     -0.00000000000028945366	     88.06649620832350000000	     32.13275894249989100000	      2.93580384847122430000	    114.81257386004744000000	     99.11727035711473400000	      0.00000000000016334773	     -0.00000000000074398102	    -13.06399851740478900000	    -34.61747389002740500000	     65.81956746108863900000
